<svg xmlns="http://www.w3.org/2000/svg" width="45" height="46" viewBox="0 0 45 46" fill="none">
  <path d="M23.2105 14.5706H21.4132V30.1247H23.2105V14.5706Z" fill="#EB2226"/>
  <path d="M44.5822 11.0853H44.6086C44.5747 8.13874 42.2122 5.32033 38.0336 3.24043C33.8549 1.16806 28.203 0 22.31 0C16.4169 0 10.765 1.16806 6.58635 3.24419C2.41148 5.32033 0.0452152 8.14251 0.0113038 11.0853H0.0452152C0.0150717 11.2511 0 11.4169 0 11.5864C0 12.3739 0.324043 13.1275 0.896769 13.6814C1.4695 14.2353 2.25323 14.548 3.0671 14.548C4.23516 14.548 5.30149 13.9075 5.8177 12.8939C6.3339 13.9037 7.40023 14.548 8.56829 14.548C9.73635 14.548 10.8027 13.9075 11.3189 12.8939C11.8351 13.9037 12.9014 14.548 14.0695 14.548C15.2375 14.548 16.3039 13.9075 16.8201 12.8939C17.3363 13.9037 18.4026 14.548 19.5707 14.548C20.7387 14.548 21.8051 13.9075 22.3213 12.8939C22.8375 13.9037 23.9038 14.548 25.0719 14.548C26.2399 14.548 27.3062 13.9075 27.8224 12.8939C28.3387 13.9037 29.405 14.548 30.573 14.548C31.7411 14.548 32.8074 13.9075 33.3236 12.8939C33.8398 13.9037 34.9062 14.548 36.0742 14.548C37.2423 14.548 38.3086 13.9075 38.8248 12.8939C39.341 13.9037 40.4074 14.548 41.5754 14.548C43.271 14.548 44.6425 13.2217 44.6425 11.5864C44.6425 11.4206 44.6275 11.2511 44.5973 11.0853H44.5822ZM3.53433 11.4508H3.5607C3.53433 11.6166 3.52302 11.7823 3.52302 11.9481C3.52302 12.3362 3.59461 12.7168 3.72649 13.0747C2.43032 12.8185 1.50717 11.8125 1.50341 10.652C1.50341 10.5125 1.51848 10.3694 1.54485 10.2299H1.51471C1.53732 8.508 2.60741 6.8275 4.60442 5.36177C6.60143 3.89605 9.45376 2.70915 12.8411 1.92918C7.1101 3.90358 3.572 7.52457 3.53056 11.4508H3.53433ZM9.71751 12.0875C8.83581 13.7153 6.84634 12.6038 7.44168 10.6218C8.18773 6.25101 11.9368 3.92242 13.6136 3.44389C10.1244 6.73707 10.7424 9.86823 9.71751 12.0875ZM15.3694 11.8502C14.5518 13.7341 12.3927 12.7168 12.8449 10.7085C13.8057 6.04377 15.7613 4.54413 17.276 2.61872C14.8494 7.15531 16.123 9.51027 15.3694 11.8502ZM20.7689 11.6542C20.2527 13.6437 17.9618 12.9692 18.0974 10.9157C18.8774 6.16058 19.744 5.04527 20.6822 2.24192C20.328 7.87499 21.1532 9.22768 20.7689 11.6542ZM23.7192 11.6542C23.3386 9.22768 24.1638 7.87499 23.8058 2.24192C24.7403 5.04904 25.6107 6.16058 26.3906 10.9157C26.5263 12.9692 24.2354 13.6437 23.7192 11.6542ZM29.3485 11.8351C28.5986 9.4952 29.8722 7.14024 27.4419 2.60364C28.9566 4.52529 30.9122 6.0287 31.873 10.6934C32.3251 12.7017 30.1661 13.7191 29.3485 11.8351ZM34.7969 12.1102C33.7758 9.89084 34.3937 6.75968 30.9009 3.4665C32.5776 3.94503 36.3229 6.27362 37.0727 10.6444C37.6982 12.502 35.4601 13.7304 34.7969 12.1102ZM40.7992 13.071C40.9311 12.713 40.9989 12.3325 41.0027 11.9444C41.0027 11.7786 40.9914 11.6128 40.965 11.447H40.9876C40.9499 7.5208 37.4081 3.89982 31.6808 1.92542C35.072 2.70538 37.9205 3.89228 39.9175 5.35801C41.9145 6.82373 42.9846 8.50423 43.0072 10.2262H42.9809C43.0072 10.3656 43.0223 10.505 43.0223 10.6482C43.0185 11.8087 42.0954 12.8148 40.7992 13.071Z" fill="#EB2226"/>
  <path d="M14.1524 25.4562L9.11091 29.258C8.85092 29.454 7.59243 30.5165 6.80493 31.3229C8.14632 31.7034 9.47263 31.9898 10.7914 32.197L14.5443 29.7516L16.6016 32.6153C17.8827 32.6002 19.16 32.5211 20.426 32.3817L22.212 31.4321L15.9874 25.6823C15.8894 25.5768 15.7839 25.4863 15.6709 25.411C15.5315 25.2866 15.3468 25.2113 15.1434 25.1887C15.1245 25.1887 15.1057 25.1811 15.0831 25.1774C15.004 25.1661 14.9286 25.1623 14.8532 25.1698C14.7289 25.1811 14.6083 25.215 14.5028 25.2716C14.3823 25.3168 14.2617 25.3733 14.1486 25.4486L14.1524 25.4562Z" fill="#EB2226"/>
  <path d="M22.6792 36.809C28.3764 35.8368 32.8753 33.9416 37.5136 30.4148C38.1127 29.94 38.5008 29.3522 38.7118 28.7569C38.6515 28.7682 38.5912 28.7757 38.531 28.7795C36.9107 28.9227 35.4412 27.83 35.1097 26.2399C35.0833 24.16 34.9778 21.9595 36.1496 22.5247C36.7261 22.0123 37.4496 21.6995 38.2182 21.628C38.4895 21.6053 38.7646 21.6091 39.0321 21.6468C38.9869 21.5903 38.9379 21.53 38.8927 21.4772C37.7359 20.0567 36.3456 19.2692 35.0984 19.2542C35.0155 19.2542 34.9326 19.2542 34.8497 19.2617C33.4593 19.3634 32.2875 20.4712 31.8843 22.7885C31.7637 23.478 31.3267 25.5466 31.1835 26.8465C32.2875 26.1043 33.2106 25.5692 33.2558 25.6408L33.2898 25.6936C33.335 25.7651 32.4721 26.4321 31.353 27.1857L31.0893 27.3628C31.0893 27.3628 31.0554 27.3854 31.0403 27.3967C28.9039 29.0847 26.5527 30.2302 23.8737 30.7464C21.8842 31.1307 21.9294 32.5512 22.3364 33.3425C22.7433 34.1337 23.9528 33.8662 25.3432 33.5987C27.3628 33.2106 30.1322 32.1631 32.4834 30.8255C30.1473 32.5512 27.5663 33.7268 24.9287 34.1413C23.4969 34.3636 22.2761 34.3184 21.888 33.4932C21.7034 33.1051 21.6092 32.5738 21.7787 32.0877L20.5767 32.766C15.5503 33.3123 10.4108 32.9506 5.09052 31.1232C3.87724 30.7049 2.19297 31.4924 2.4718 32.977C2.69034 34.13 3.1651 34.2694 4.32562 34.7554C10.8969 36.6884 16.7975 37.8112 22.6717 36.809H22.6792Z" fill="#EB2226"/>
  <path d="M35.3848 25.4336C35.4601 26.2776 35.8708 27.0613 36.5227 27.6039C37.1745 28.1465 38.0148 28.4102 38.8626 28.3349C39.7066 28.2595 40.4903 27.8488 41.0329 27.197C41.5755 26.5451 41.8392 25.7049 41.7639 24.8571C41.6056 23.0974 40.0495 21.7975 38.2898 21.9558C36.5302 22.114 35.2303 23.6702 35.3885 25.4298L35.3848 25.4336Z" fill="#EB2226"/>
  <path d="M12.1403 40.121C11.5299 40.0494 10.9232 39.9665 10.3166 39.8686L8.94128 44.2733H10.8441L12.1403 40.121Z" fill="#EB2226"/>
  <path d="M38.2069 44.2733C38.1541 44.051 38.0712 43.8211 37.9544 43.5913L34.4691 36.8127C33.9001 37.1029 33.3198 37.3779 32.7283 37.6379L36.142 44.2733H38.2106H38.2069Z" fill="#EB2226"/>
  <path d="M41.3983 27.8112C33.9076 36.5678 18.8773 40.0758 5.50117 35.8293C4.90583 35.6409 4.44615 36.5226 4.51774 37.1971C4.58556 37.8716 5.15829 38.0637 5.74985 38.2634C18.7003 42.6154 34.4465 39.6274 42.6493 29.94C43.0788 29.4351 43.286 28.8511 43.0675 28.2558C42.8377 27.6303 41.8316 27.3063 41.3983 27.8112Z" fill="#EB2226"/>
  <path d="M14.9136 44.7706C14.9136 44.7706 14.9136 44.8008 14.9136 44.8347V45.8859C14.9136 45.9236 14.9136 45.95 14.9136 45.95H16.9143C16.9143 45.95 16.9143 45.9199 16.9143 45.8859V44.8347C16.9143 44.797 16.9143 44.7706 16.9143 44.7706H14.9136Z" fill="#EB2226"/>
  <path d="M31.7562 44.7706C31.7562 44.7706 31.7562 44.8008 31.7562 44.8347V45.8859C31.7562 45.9236 31.7562 45.95 31.7562 45.95H33.757C33.757 45.95 33.757 45.9199 33.757 45.8859V44.8347C33.757 44.797 33.757 44.7706 33.757 44.7706H31.7562Z" fill="#EB2226"/>
  <path d="M6.49597 44.7706C6.49597 44.7706 6.49597 44.8008 6.49597 44.8347V45.8859C6.49597 45.9236 6.49597 45.95 6.49597 45.95H8.49675C8.49675 45.95 8.49675 45.9199 8.49675 45.8859V44.8347C8.49675 44.797 8.49675 44.7706 8.49675 44.7706H6.49597Z" fill="#EB2226"/>
  <path d="M23.3348 44.7706C23.3348 44.7706 23.3348 44.8008 23.3348 44.8347V45.8859C23.3348 45.9236 23.3348 45.95 23.3348 45.95H25.3356C25.3356 45.95 25.3356 45.9199 25.3356 45.8859V44.8347C25.3356 44.797 25.3356 44.7706 25.3356 44.7706H23.3348Z" fill="#EB2226"/>
  <path d="M40.1776 44.7706C40.1776 44.7706 40.1776 44.8008 40.1776 44.8347V45.8859C40.1776 45.9236 40.1776 45.95 40.1776 45.95H42.1784C42.1784 45.95 42.1784 45.9199 42.1784 45.8859V44.8347C42.1784 44.797 42.1784 44.7706 42.1784 44.7706H40.1776Z" fill="#EB2226"/>
  <path d="M17.7207 44.7706C17.7207 44.7706 17.7207 44.8008 17.7207 44.8347V45.8859C17.7207 45.9236 17.7207 45.95 17.7207 45.95H19.7215C19.7215 45.95 19.7215 45.9199 19.7215 45.8859V44.8347C19.7215 44.797 19.7215 44.7706 19.7215 44.7706H17.7207Z" fill="#EB2226"/>
  <path d="M34.5634 44.7706C34.5634 44.7706 34.5634 44.8008 34.5634 44.8347V45.8859C34.5634 45.9236 34.5634 45.95 34.5634 45.95H36.5641C36.5641 45.95 36.5641 45.9199 36.5641 45.8859V44.8347C36.5641 44.797 36.5641 44.7706 36.5641 44.7706H34.5634Z" fill="#EB2226"/>
  <path d="M9.3031 44.7706C9.3031 44.7706 9.3031 44.8008 9.3031 44.8347V45.8859C9.3031 45.9236 9.3031 45.95 9.3031 45.95H11.3039C11.3039 45.95 11.3039 45.9199 11.3039 45.8859V44.8347C11.3039 44.797 11.3039 44.7706 11.3039 44.7706H9.3031Z" fill="#EB2226"/>
  <path d="M26.142 44.7706C26.142 44.7706 26.142 44.8008 26.142 44.8347V45.8859C26.142 45.9236 26.142 45.95 26.142 45.95H28.1427C28.1427 45.95 28.1427 45.9199 28.1427 45.8859V44.8347C28.1427 44.797 28.1427 44.7706 28.1427 44.7706H26.142Z" fill="#EB2226"/>
  <path d="M20.5278 44.7706C20.5278 44.7706 20.5278 44.8008 20.5278 44.8347V45.8859C20.5278 45.9236 20.5278 45.95 20.5278 45.95H22.5286C22.5286 45.95 22.5286 45.9199 22.5286 45.8859V44.8347C22.5286 44.797 22.5286 44.7706 22.5286 44.7706H20.5278Z" fill="#EB2226"/>
  <path d="M37.3705 44.7706C37.3705 44.7706 37.3705 44.8008 37.3705 44.8347V45.8859C37.3705 45.9236 37.3705 45.95 37.3705 45.95H39.3713C39.3713 45.95 39.3713 45.9199 39.3713 45.8859V44.8347C39.3713 44.797 39.3713 44.7706 39.3713 44.7706H37.3705Z" fill="#EB2226"/>
  <path d="M12.1064 44.7706C12.1064 44.7706 12.1064 44.8008 12.1064 44.8347V45.8859C12.1064 45.9236 12.1064 45.95 12.1064 45.95H14.1072C14.1072 45.95 14.1072 45.9199 14.1072 45.8859V44.8347C14.1072 44.797 14.1072 44.7706 14.1072 44.7706H12.1064Z" fill="#EB2226"/>
  <path d="M28.9491 44.7706C28.9491 44.7706 28.9491 44.8008 28.9491 44.8347V45.8859C28.9491 45.9236 28.9491 45.95 28.9491 45.95H30.9499C30.9499 45.95 30.9499 45.9199 30.9499 45.8859V44.8347C30.9499 44.797 30.9499 44.7706 30.9499 44.7706H28.9491Z" fill="#EB2226"/>
</svg>