<!-- src/icons/profile-icon.svg -->
<svg xmlns="http://www.w3.org/2000/svg" width="38" height="44" viewBox="0 0 38 44" fill="none">
  <path d="M18.6865 21.195C21.5983 21.195 24.1193 20.1506 26.1798 18.0901C28.2396 16.03 29.2843 13.5093 29.2843 10.5971C29.2843 7.68602 28.24 5.16497 26.1795 3.10415C24.119 1.04434 21.5979 0 18.6865 0C15.7743 0 13.2536 1.04434 11.1935 3.10449C9.1333 5.16463 8.08862 7.68568 8.08862 10.5971C8.08862 13.5093 9.1333 16.0303 11.1935 18.0905C13.2543 20.1503 15.7753 21.195 18.6865 21.195ZM13.0169 4.92763C14.5977 3.34686 16.4521 2.57846 18.6865 2.57846C20.9205 2.57846 22.7752 3.34686 24.3563 4.92763C25.9371 6.50875 26.7058 8.36345 26.7058 10.5971C26.7058 12.8315 25.9371 14.6859 24.3563 16.267C22.7752 17.8481 20.9205 18.6165 18.6865 18.6165C16.4528 18.6165 14.5984 17.8478 13.0169 16.267C11.4358 14.6862 10.6671 12.8315 10.6671 10.5971C10.6671 8.36345 11.4358 6.50875 13.0169 4.92763Z" fill="white"/>
  <path d="M37.2298 33.8338C37.1704 32.9764 37.0502 32.0412 36.8733 31.0536C36.6947 30.0586 36.4648 29.118 36.1895 28.2583C35.9048 27.3697 35.5185 26.4922 35.0401 25.6513C34.5443 24.7785 33.9615 24.0185 33.3076 23.3931C32.6238 22.7388 31.7866 22.2128 30.8184 21.8291C29.8536 21.4474 28.7845 21.2541 27.6407 21.2541C27.1916 21.2541 26.7572 21.4384 25.9183 21.9845C25.402 22.3212 24.7981 22.7106 24.124 23.1413C23.5476 23.5086 22.7668 23.8527 21.8024 24.1642C20.8614 24.4687 19.906 24.6231 18.9627 24.6231C18.0201 24.6231 17.0647 24.4687 16.1231 24.1642C15.1597 23.853 14.3785 23.5089 13.8031 23.1417C13.1354 22.715 12.5312 22.3256 12.0072 21.9842C11.1689 21.438 10.7346 21.2537 10.2854 21.2537C9.14136 21.2537 8.07251 21.4474 7.10806 21.8294C6.14059 22.2125 5.30304 22.7385 4.61856 23.3934C3.96463 24.0192 3.38187 24.7788 2.88638 25.6513C2.40869 26.4922 2.02197 27.3694 1.7373 28.2586C1.46237 29.1183 1.23242 30.0586 1.05383 31.0536C0.876587 32.0399 0.756744 32.9754 0.697327 33.8348C0.638916 34.6751 0.609375 35.5495 0.609375 36.4331C0.609375 38.7299 1.33951 40.5893 2.7793 41.9606C4.20129 43.3138 6.08252 43.9999 8.37094 43.9999H29.5572C31.845 43.9999 33.7262 43.3138 35.1485 41.9606C36.5887 40.5903 37.3188 38.7302 37.3188 36.4327C37.3185 35.5462 37.2886 34.6717 37.2298 33.8338ZM33.3707 40.0925C32.4311 40.9867 31.1837 41.4215 29.5569 41.4215H8.37094C6.74384 41.4215 5.4964 40.9867 4.55713 40.0928C3.63565 39.2156 3.18784 38.0182 3.18784 36.4331C3.18784 35.6086 3.21503 34.7946 3.26941 34.0131C3.32245 33.2463 3.43088 32.4041 3.59167 31.5091C3.75046 30.6253 3.95255 29.7958 4.1929 29.0448C4.42352 28.3248 4.73807 27.6117 5.12814 26.9249C5.50043 26.2703 5.92877 25.7087 6.40143 25.2562C6.84354 24.8329 7.40079 24.4864 8.0574 24.2266C8.66467 23.9863 9.34714 23.8547 10.088 23.8349C10.1783 23.8829 10.3391 23.9745 10.5996 24.1444C11.1297 24.4898 11.7406 24.8839 12.416 25.3153C13.1774 25.8007 14.1583 26.2391 15.3302 26.6174C16.5283 27.0048 17.7502 27.2015 18.9631 27.2015C20.1759 27.2015 21.3982 27.0048 22.5956 26.6178C23.7685 26.2388 24.7491 25.8007 25.5114 25.3146C26.2026 24.8728 26.7965 24.4901 27.3265 24.1444C27.587 23.9748 27.7478 23.8829 27.8381 23.8349C28.5793 23.8547 29.2618 23.9863 29.8694 24.2266C30.5257 24.4864 31.0829 24.8332 31.5251 25.2562C31.9977 25.7084 32.4261 26.27 32.7983 26.9253C33.1888 27.6117 33.5036 28.3251 33.7339 29.0445C33.9746 29.7964 34.177 30.6256 34.3355 31.5088C34.4959 32.4054 34.6047 33.248 34.6577 34.0134V34.0141C34.7125 34.7925 34.74 35.6063 34.7403 36.4331C34.74 38.0186 34.2922 39.2156 33.3707 40.0925Z" fill="white"/>
</svg>
