<svg height="512" viewBox="0 0 48 48" width="512" fill="currentColor" xmlns="http://www.w3.org/2000/svg"><g id="Line"><path d="m5 42h20v-30h-11v-3.5a2.73 2.73 0 0 0 0-.5h20.1a2.73 2.73 0 0 0 0 .5v3.5h-7.1v30h16a3 3 0 0 0 3-3v-24a3 3 0 0 0 -3-3h-4v-3.5a2.73 2.73 0 0 0 0-.5h6a1 1 0 0 0 0-2h-42a1 1 0 0 0 0 2h6.05a2.73 2.73 0 0 0 -.05.5v3.5h-4a3 3 0 0 0 -3 3v24a3 3 0 0 0 3 3zm29-6h-4a1 1 0 0 1 0-2h4a1 1 0 0 1 0 2zm1-4h-5a1 1 0 0 1 0-2h5a1 1 0 0 1 0 2zm5-4h-10a1 1 0 0 1 0-2h10a1 1 0 0 1 0 2zm-11-5a1 1 0 0 1 1-1h8a1 1 0 0 1 0 2h-8a1 1 0 0 1 -1-1zm12-5a1 1 0 0 1 0 2h-11a1 1 0 0 1 0-2zm-35.71 10.93.71-.71a1 1 0 0 1 .57-.28l4.62-.66 1.75-1.76-3.94-2.85a1 1 0 0 1 -.41-.73 1 1 0 0 1 .29-.79l1.41-1.41a1 1 0 0 1 .91-.28l6.54 1.31 1.7-1.77c.83-.83 3.33-2.32 4.59-1.06s-.23 3.79-1.03 4.62l-1.74 1.75 1.31 6.54a1 1 0 0 1 -.28.91l-1.41 1.41a1 1 0 0 1 -.79.29 1 1 0 0 1 -.73-.41l-2.85-4-1.76 1.75-.66 4.62a1 1 0 0 1 -.28.57l-.71.71a1 1 0 0 1 -.71.29h-.23a1 1 0 0 1 -.71-.65l-1.34-4-.38-.38-4-1.34a1 1 0 0 1 -.73-.75 1 1 0 0 1 .29-.94z"/></g></svg>