<svg id="Capa_1" enable-background="new 0 0 512 512" height="512" fill="currentColor" viewBox="0 0 512 512" width="512" xmlns="http://www.w3.org/2000/svg"><g><path d="m93.865 421.166h41.209l-33.974-88.331c-4.559 1.475-9.066 3.114-13.487 4.911-12.319 5.006-18.458 19.177-13.684 31.588z"/><path d="m167.217 421.166h93.034l41.137-106.956c4.773-12.412-1.365-26.582-13.684-31.589-47.7-19.386-100.238-19.386-147.938 0-12.319 5.007-18.458 19.178-13.685 31.589z"/><path d="m61.723 421.166-12.772-33.208c-4.56 1.476-9.067 3.114-13.487 4.91-11.241 4.569-17.331 16.768-14.685 28.297h40.944z"/><path d="m333.603 421.166 19.935-51.832c4.773-12.411-1.366-26.582-13.685-31.589-4.421-1.797-8.928-3.435-13.487-4.91l-33.974 88.331z"/><path d="m392.004 392.869c-4.42-1.797-8.928-3.435-13.487-4.911l-12.772 33.207h40.944c2.646-11.529-3.444-23.727-14.685-28.296z"/><path d="m0 456.361c0 17.796 14.478 32.274 32.274 32.274h387.452c17.796 0 32.274-14.478 32.274-32.274v-5.195h-452z"/><path d="m267.601 118.606h30c0-8.177 1.814-11.603 4.561-16.788 3.586-6.771 8.05-15.198 8.05-30.83s-4.463-24.06-8.049-30.832c-2.747-5.187-4.561-8.613-4.561-16.792h-30c0 15.633 4.463 24.061 8.049 30.832 2.747 5.187 4.561 8.612 4.561 16.792 0 8.177-1.814 11.603-4.561 16.788-3.587 6.772-8.05 15.199-8.05 30.83z"/><path d="m340.462 118.606h30c0-8.177 1.814-11.603 4.561-16.788 3.586-6.771 8.049-15.198 8.049-30.829 0-15.632-4.463-24.06-8.049-30.832-2.747-5.186-4.561-8.612-4.561-16.792h-30c0 15.633 4.463 24.06 8.049 30.832 2.747 5.186 4.561 8.612 4.561 16.792 0 8.177-1.814 11.603-4.561 16.788-3.586 6.771-8.049 15.198-8.049 30.829z"/><path d="m460.601 210.943c-7.635 0-14.879 1.686-21.399 4.685v-56.945h-210.468v79.901c23.849 1.6 47.533 7.008 70.264 16.246 13.326 5.415 23.813 15.667 29.531 28.865 2.752 6.354 4.237 13.046 4.474 19.777 6.141 1.907 12.211 4.07 18.146 6.482 13.326 5.416 23.812 15.667 29.53 28.866 2.752 6.353 4.237 13.046 4.475 19.776 6.142 1.907 12.213 4.07 18.146 6.481 12.771 5.191 22.922 14.83 28.779 27.241 4.648-10.423 7.123-21.843 7.123-33.679v-14.282c6.52 2.999 13.765 4.685 21.399 4.685 28.341 0 51.399-23.058 51.399-51.399v-35.3c0-28.343-23.058-51.4-51.399-51.4zm21.399 86.698c0 11.8-9.6 21.399-21.399 21.399-11.799 0-21.399-9.6-21.399-21.399v-35.3c0-11.799 9.6-21.399 21.399-21.399s21.399 9.6 21.399 21.399z"/></g></svg>