<svg id="Glyph" enable-background="new 0 0 32 32" height="512" fill="currentColor" viewBox="0 0 32 32" width="512" xmlns="http://www.w3.org/2000/svg"><path id="XMLID_398_" d="m13.65 18.639-2.22 1.539c-.269.187-.43.494-.43.822v9h-6v-3c0-4.265 2.432-7.955 5.98-9.78.782.632 1.687 1.115 2.67 1.419z"/><path id="XMLID_837_" d="m21.02 17.22c-1.208.977-2.703 1.611-4.337 1.75l-3.683 2.553v8.477h14v-3c0-4.265-2.432-7.955-5.98-9.78zm-5.02 10.78c-.552 0-1-.448-1-1s.448-1 1-1 1 .448 1 1-.448 1-1 1zm0-4c-.552 0-1-.448-1-1s.448-1 1-1 1 .448 1 1-.448 1-1 1z"/><path id="XMLID_402_" d="m10 11c0-.341.032-.675.089-1h11.823c.056.325.088.659.088 1 0 3.314-2.686 6-6 6s-6-2.686-6-6z"/><path id="XMLID_404_" d="m22 8h-12v-4.26c0-.44.286-.838.708-.962 1.764-.519 3.528-.778 5.292-.778 1.762 0 3.525.259 5.287.777.424.124.713.525.713.967z"/></svg>