<svg width="24" height="24" viewBox="0 0 24 24" fill="none" xmlns="http://www.w3.org/2000/svg">
<g id="Group 133">
<circle id="Ellipse 7" cx="11.9897" cy="11.9897" r="11.9897" fill="#FF8C00"/>
<path id="$" d="M11.3875 22.4458V1.39795H12.7358V22.4458H11.3875ZM15.2764 8.13161C15.1996 7.41357 14.8762 6.85449 14.3062 6.45436C13.7416 6.05423 13.0072 5.85417 12.1028 5.85417C11.4669 5.85417 10.9216 5.95009 10.4666 6.14193C10.0117 6.33378 9.66362 6.59413 9.42245 6.92301C9.18128 7.25188 9.05795 7.62734 9.05247 8.04939C9.05247 8.40019 9.13195 8.7044 9.2909 8.96201C9.45534 9.21963 9.67732 9.43888 9.95687 9.61976C10.2364 9.79516 10.5461 9.94315 10.8859 10.0637C11.2258 10.1843 11.5683 10.2857 11.9137 10.3679L13.4922 10.7626C14.1281 10.9106 14.7392 11.1106 15.3257 11.3628C15.9177 11.6149 16.4466 11.9328 16.9125 12.3165C17.3839 12.7002 17.7566 13.1634 18.0307 13.706C18.3047 14.2486 18.4418 14.8845 18.4418 15.6135C18.4418 16.6001 18.1896 17.4688 17.6854 18.2198C17.1811 18.9652 16.4521 19.549 15.4984 19.971C14.5501 20.3876 13.4018 20.5959 12.0534 20.5959C10.7434 20.5959 9.60607 20.3931 8.64138 19.9875C7.68217 19.5819 6.93124 18.9899 6.3886 18.2115C5.85144 17.4332 5.56094 16.485 5.51709 15.3668H8.51805C8.5619 15.9533 8.74278 16.4411 9.06069 16.8303C9.3786 17.2195 9.79243 17.51 10.3022 17.7018C10.8174 17.8936 11.3929 17.9896 12.0288 17.9896C12.692 17.9896 13.273 17.8909 13.7718 17.6936C14.2761 17.4908 14.6707 17.2112 14.9557 16.8549C15.2407 16.4932 15.386 16.0711 15.3915 15.5888C15.386 15.1503 15.2572 14.7885 15.0051 14.5035C14.7529 14.213 14.3994 13.9718 13.9444 13.78C13.495 13.5827 12.9688 13.4073 12.3659 13.2538L10.4502 12.7605C9.06343 12.4042 7.96719 11.8643 7.16145 11.1408C6.3612 10.4118 5.96107 9.44436 5.96107 8.23849C5.96107 7.2464 6.22965 6.37762 6.7668 5.63218C7.30944 4.88674 8.04667 4.30847 8.97847 3.89738C9.91028 3.48081 10.9654 3.27252 12.1439 3.27252C13.3388 3.27252 14.3857 3.48081 15.2846 3.89738C16.189 4.30847 16.8988 4.88126 17.414 5.61574C17.9293 6.34474 18.1951 7.18336 18.2116 8.13161H15.2764Z" fill="white"/>
</g>
</svg>
