<svg id="Layer_1" viewBox="0 0 512 512" fill="currentColor" xmlns="http://www.w3.org/2000/svg" data-name="Layer 1"><path d="m103.666 27.8h-40.633a17.552 17.552 0 0 0 -17.487 17.483v231.14a17.552 17.552 0 0 0 17.487 17.488h40.633a17.553 17.553 0 0 0 17.488-17.488v-94.718a1.917 1.917 0 0 1 1.914-1.914h9.092a1.916 1.916 0 0 0 1.913-1.89c.106-8.416.4-16.084 4.285-22.7 3.806-6.486 10.252-10.512 21.212-10.624 0-1.136-.154-2.659-1.914-2.659h-34.588a1.918 1.918 0 0 1 -1.914-1.918v-94.717a17.553 17.553 0 0 0 -17.488-17.483zm40.874 157.05c.227-8.429-.4-18.621 2.933-24.3 1.949-3.321 5.709-5.365 12.566-5.365h83.7a18.225 18.225 0 0 1 12.908 5.375c5.91 5.91 5.375 11.6 5.375 18.854a18.351 18.351 0 0 1 -18.283 18.284h-39.631c-6.982 0-6.982 10.606 0 10.606h10.046a1.882 1.882 0 0 1 1.777 1.2c7.848 19.658 38.709 33.782 37.6 55.5-.355 6.953 10.209 7.494 10.565.539 1.268-24.819-24.349-39.151-35.087-54.223a1.911 1.911 0 0 1 1.558-3.024h13.169a28.992 28.992 0 0 0 28.126-22.296 1.911 1.911 0 0 1 3.168-.962 28.778 28.778 0 0 0 19.667 7.768h5.947a28.9 28.9 0 0 0 21.258-9.368 1.907 1.907 0 0 1 2.882.077 25.5 25.5 0 0 0 19.666 9.291c6.019 0 10.387.193 15.624-2.257a1.909 1.909 0 0 1 2.724 1.68c.167 5.952.418 11.817.668 17.642 1.68 39.127 3.282 76.441-22.474 118.5a27.514 27.514 0 0 0 -4.174 15.848c1.333 39.172 1.285 89.833 1.285 131.288a1.85 1.85 0 0 1 -.567 1.36c-1.723 1.707-7.246 7.338-9.013 7.338h-131.44a1.833 1.833 0 0 1 -1.1-.351c-4.246-3-7.387-2.628-9.111-13.535-.528-3.34-.373-25.512-.19-51.821.288-41.308.646-92.654-1.793-101.115-3.425-11.879-35.921-58.691-40.075-77.263-2.1-9.376-.782-38.547-.27-55.273zm189.379-73.284a14.87 14.87 0 0 0 -4.385 10.532v41.822l-.089 2.491c.266 4.651 1.086 8.018 4.474 11.406 4.875 4.876 9.612 4.386 15.63 4.386a14.974 14.974 0 0 0 14.916-14.917v-45.192a14.975 14.975 0 0 0 -14.916-14.918c-6.018 0-10.754-.489-15.63 4.386zm-121.23 31.1v-24.334a18.35 18.35 0 0 0 -18.283-18.283c-7.25 0-12.945-.535-18.855 5.375a18.224 18.224 0 0 0 -5.375 12.908v24.327a1.918 1.918 0 0 0 1.914 1.914h38.685a1.918 1.918 0 0 0 1.914-1.914zm10.611-31.461v31.454a1.918 1.918 0 0 0 1.914 1.914h18.526a28.755 28.755 0 0 1 18.9 7.082 1.913 1.913 0 0 0 3.169-1.445v-39.005a18.35 18.35 0 0 0 -18.283-18.283c-7.25 0-12.945-.536-18.855 5.374a18.228 18.228 0 0 0 -5.375 12.909zm77.349-18.283c-7.25 0-12.945-.536-18.855 5.374a18.228 18.228 0 0 0 -5.375 12.909v52.711a18.35 18.35 0 0 0 18.281 18.284c7.238 0 12.945.535 18.874-5.393a18.168 18.168 0 0 0 5.356-12.89v-52.712a18.35 18.35 0 0 0 -18.283-18.283zm-267.623-7.234h-11.1c-5.179 0-10.926 3.112-10.926 7.951v134.428c0 4.836 5.747 7.952 10.931 7.952h11.1a1.917 1.917 0 0 0 1.913-1.914v-146.505a1.917 1.917 0 0 0 -1.913-1.914zm415.941-57.888h-40.633a17.553 17.553 0 0 0 -17.488 17.487v94.713a1.917 1.917 0 0 1 -1.914 1.914h-11.947a1.918 1.918 0 0 0 -1.914 1.914v23.452c0 7.436-3.213 10.065-1.34 11.946a1.851 1.851 0 0 0 1.356.563h13.845a1.917 1.917 0 0 1 1.914 1.914v94.718a17.553 17.553 0 0 0 17.488 17.488h40.633a17.553 17.553 0 0 0 17.488-17.488v-231.138a17.553 17.553 0 0 0 -17.488-17.483zm30.008 208.223h11.095c5.183 0 10.93-3.116 10.93-7.952v-134.432c0-4.835-5.747-7.951-10.93-7.951h-11.095a1.918 1.918 0 0 0 -1.914 1.914v146.5a1.918 1.918 0 0 0 1.914 1.917z" fill-rule="evenodd"/></svg>