<svg xmlns="http://www.w3.org/2000/svg" width="90" height="40" viewBox="0 0 90 40" fill="none">
  <path d="M62.2455 0.402681C64.2194 0.00307282 66.2562 -0.120677 68.2585 0.129401C69.3275 0.272056 70.3837 0.55393 71.3557 1.02916C71.6668 1.17612 71.9435 1.39526 72.1523 1.67025C72.8613 2.60783 73.4903 3.60298 74.1486 4.57665C72.7032 4.00517 71.1606 3.70697 69.6146 3.59181C67.6793 3.45087 65.7405 3.64939 63.8207 3.87798C61.2374 4.23806 58.6679 4.78032 56.2084 5.66118C56.4344 4.50275 56.8546 3.37525 57.5155 2.39213C57.7621 2.01916 58.1746 1.8215 58.5553 1.6144C59.712 1.01799 60.9779 0.671664 62.2463 0.402681H62.2455Z" fill="#EB2226"/>
  <path d="M47.6112 13.2632C49.8103 10.5665 51.9536 7.8268 54.1381 5.11978C54.053 5.67494 53.8984 6.21892 53.8184 6.77579C53.7609 7.07915 53.7445 7.39196 53.6457 7.68587C52.9565 8.40172 52.3541 9.19492 51.7147 9.95461C50.7299 11.162 49.7639 12.3849 48.7533 13.5726C47.5889 14.9845 46.4416 16.4102 45.2737 17.8187C44.0843 19.2152 42.9671 20.671 41.7477 22.0417C41.5372 22.2875 41.3352 22.5401 41.1375 22.7971C40.67 22.883 40.2051 22.9896 39.7454 23.1099C40.163 22.4593 40.7018 21.8964 41.1625 21.2768C43.3083 18.6033 45.4636 15.9376 47.6095 13.2641L47.6112 13.2632Z" fill="#EB2226"/>
  <path d="M69.8011 6.37187C71.4777 6.20258 73.2471 6.09429 74.8438 6.73453C75.7694 7.10921 76.3349 8.01585 76.5746 8.95085C76.8745 10.1686 76.817 11.4594 76.5007 12.6676C76.0831 14.0942 75.3543 15.4185 74.4236 16.5735C73.8822 17.2369 73.3262 17.8995 72.649 18.4332C70.9122 19.8563 69.1797 21.2837 67.4395 22.7017C66.575 23.4278 65.7019 24.1437 64.8115 24.8372C65.6769 25.0778 66.5286 25.3726 67.4017 25.5874C66.599 26.3334 65.9012 27.1979 65.4122 28.1819C65.8471 27.9456 66.2312 27.6284 66.6583 27.3784C67.8924 26.6513 69.1024 25.8435 70.4774 25.3975C71.4708 25.0667 72.5923 24.8999 73.5892 25.3038C74.7751 25.7859 75.5795 26.9444 75.8622 28.1638C76.0435 28.89 75.9533 29.6402 75.8227 30.3655C76.2549 29.4701 76.3495 28.4285 76.1802 27.454C79.9382 28.5789 83.7074 29.6652 87.4689 30.7763C87.444 28.3228 87.4732 25.8693 87.4826 23.4167C87.4783 22.7386 87.5222 22.0597 87.4474 21.3842C87.6846 21.795 87.9647 22.2092 88.0146 22.6939C88.3102 24.9343 88.6024 27.1756 88.8843 29.4177C88.9479 30.0536 89.069 30.6852 89.0991 31.3237C87.8187 31.8669 86.6026 32.5569 85.3084 33.0648C84.865 32.9101 84.3829 32.9591 83.9248 32.8792C81.7626 32.6841 79.6065 32.4452 77.446 32.233C76.7534 32.1573 76.0538 32.1264 75.3689 32.0009C74.2749 33.2848 72.9825 34.4218 71.4734 35.1944C70.504 35.6558 69.4255 35.9411 68.3453 35.8526C67.1937 35.7615 66.0989 35.2115 65.2928 34.3917C64.4944 33.6174 63.9247 32.5595 63.904 31.4294C61.6783 31.2722 59.4534 31.1115 57.2293 30.9482C55.4848 32.4306 53.6466 33.7953 51.872 35.2416C50.8158 36.0795 49.7742 36.9346 48.6846 37.7286C47.7642 38.3749 46.6762 38.7178 45.5934 38.9756C43.8987 39.3804 42.1439 39.5883 40.4019 39.4629C38.7571 39.3382 37.1535 38.7169 35.8584 37.6977C35.2431 37.1692 34.6312 36.5857 34.3167 35.8208C35.3772 34.4433 36.3311 32.9866 37.3469 31.5781C37.1226 31.5996 36.8974 31.6116 36.6783 31.6632C36.1137 32.3902 35.6006 33.1576 35.0463 33.8941C34.7198 34.3496 34.3296 34.7604 34.0537 35.2519C33.942 34.8274 33.771 34.4166 33.6902 33.9878C34.2282 33.2298 34.7954 32.4873 35.3961 31.7784C34.547 31.7955 33.7014 31.8926 32.8532 31.9476C32.292 31.9923 31.7283 32.025 31.1749 32.1255C30.7795 32.5922 30.502 33.1473 30.1152 33.6208C29.3238 34.6212 28.3939 35.5931 27.1796 36.0615C25.9249 36.553 24.4674 36.4387 23.2867 35.7994C22.1265 35.1712 21.1889 34.1176 20.7704 32.8603C16.3765 33.2994 11.973 33.6397 7.58079 34.0909C6.25907 34.1966 4.94252 34.3659 3.6208 34.4733C2.71932 34.5567 1.81784 34.6306 0.920654 34.7535C1.14753 32.4641 1.328 30.1696 1.56432 27.8811C1.68292 26.2913 1.92354 24.7074 1.92956 23.1116C2.12463 23.4106 2.2776 23.7381 2.41682 24.0663C2.53026 26.6024 2.40221 29.1452 2.5019 31.683C4.58931 31.2069 6.70337 30.8519 8.80024 30.4214C12.358 29.715 15.915 29.0069 19.4745 28.3091C20.1697 28.1535 20.8761 28.0461 21.5645 27.8622C21.262 28.4775 21.1683 29.159 21.0171 29.8207C22.0904 28.499 23.2153 27.1807 24.6436 26.2277C25.7135 25.4706 27.0739 24.9567 28.3905 25.2772C29.3092 25.4671 30.0688 26.0884 30.6463 26.8026C31.2127 27.515 31.5066 28.4277 31.498 29.3352C31.5066 29.556 31.4636 29.7898 31.547 30.002C31.6363 29.3979 31.7455 28.7826 31.6458 28.1724C31.571 27.4368 31.2934 26.7416 30.9308 26.1022C34.3752 25.3846 37.8367 24.747 41.2845 24.0474C41.9282 23.9056 42.583 23.8163 43.2258 23.6753C43.1304 23.3806 43.0007 23.0953 42.9517 22.7885C46.4863 19.2831 49.9367 15.6926 53.5624 12.2801C54.5386 11.3098 55.8466 10.8183 57.0591 10.221C59.8727 8.94311 62.7997 7.91358 65.7886 7.12812C67.1086 6.7964 68.445 6.52484 69.7976 6.37187H69.8011ZM26.9631 26.3901C25.8914 26.6702 25.1042 27.6508 24.8937 28.7155C24.6419 29.9109 25.1103 31.2627 26.1243 31.97C26.6743 32.3404 27.3713 32.5483 28.0295 32.3928C28.7643 32.2398 29.4106 31.7586 29.8024 31.1235C30.4521 30.1103 30.4435 28.7379 29.8506 27.7023C29.3006 26.7149 28.0837 26.0644 26.9622 26.3901H26.9631ZM71.9349 26.3927C71.3428 26.5594 70.8418 26.9848 70.5393 27.515C69.9196 28.554 70.0795 29.9917 70.9346 30.8528C71.5086 31.4449 72.4419 31.7655 73.2256 31.4105C74.4932 30.9216 75.1635 29.3498 74.7167 28.0822C74.5439 27.5992 74.2741 27.136 73.8685 26.8146C73.3468 26.3652 72.5957 26.1916 71.9349 26.3909V26.3927Z" fill="#EB2226"/>
  <path d="M38.287 11.8521C38.941 13.8777 39.3569 15.978 39.9808 18.0147C40.7448 17.9176 41.5148 17.9167 42.2813 17.8514C40.9553 19.6423 39.5571 21.3783 38.2414 23.1761C38.1701 23.25 38.1289 23.3711 38.018 23.3935C37.5771 23.5121 37.1182 23.543 36.6757 23.6504C36.4857 23.25 36.3818 22.8168 36.2571 22.3932C32.2946 22.0864 28.338 21.6979 24.3763 21.3817C22.3138 21.2081 20.2556 20.9872 18.1888 20.8454C15.9115 20.6469 13.6333 20.4295 11.3525 20.2722C11.6851 19.9526 11.9507 19.5624 12.3211 19.2865C15.065 19.241 17.8081 19.076 20.553 18.9883C23.1947 18.8517 25.839 18.7649 28.4798 18.6042C31.2152 18.4684 33.9514 18.3447 36.6877 18.208C36.7049 17.0616 36.7212 15.9152 36.7444 14.7688C36.7186 14.4431 36.9318 14.175 37.0847 13.9086C37.5127 13.2391 37.9106 12.5516 38.287 11.8521Z" fill="#EB2226"/>
</svg>