<svg height="512" viewBox="0 0 32 32" fill="currentColor" width="512" xmlns="http://www.w3.org/2000/svg"><g id="receptionist"><path d="m29 17h-26c-1.1000977 0-2 .9003906-2 2v9c0 1.0996094.8999023 2 2 2 0 .5527344.4477539 1 1 1s1-.4472656 1-1h22c0 .5527344.4477539 1 1 1s1-.4472656 1-1c1.1000977 0 2-.9003906 2-2v-9c0-1.0996094-.8999023-2-2-2zm-3 6h-20c-.5522461 0-1-.4472656-1-1s.4477539-1 1-1h20c.5522461 0 1 .4472656 1 1s-.4477539 1-1 1zm0-8h-6c0-1.2998047.8398438-2.4003906 2-2.8203125v-.1796875c0-.5498047.4501953-1 1-1s1 .4501953 1 1v.1796875c1.1601563.4199219 2 1.5205078 2 2.8203125zm-18-10c0-2.2060547 1.7944336-4 4-4s4 1.7939453 4 4-1.7944336 4-4 4-4-1.7939453-4-4zm10 10h-12c0-1.75.7597656-3.4101563 2.1000977-4.5595703.3100586-.2705078.75-.3203125 1.1201172-.1201172.5498046.2900391 1.1596679.4697266 1.7797851.5800781v2.0996094c0 .5498047.4501953 1 1 1s1-.4501953 1-1v-2.0996094c.6201172-.1103516 1.2299805-.2900391 1.7797852-.5800781.3701172-.2001953.8100586-.1503906 1.1201172.1201172 1.340332 1.1494141 2.1000976 2.8095703 2.1000976 4.5595703z"/></g></svg>