<?xml version="1.0"?>
<svg xmlns="http://www.w3.org/2000/svg" fill="currentColor" viewBox="0 0 24 24"><g id="Layer_2" data-name="Layer 2"><path d="M12.25977,9.001c-.13575,0-.23243-.002-.27442-.00293a1.00095,1.00095,0,0,1-.92676-1.3125c.34766-1.05469.66016-2.13086.92969-3.20117C12.582,2.28906,13.88086,1,15.47168,1A3.66708,3.66708,0,0,1,19,4.78418c0,2.33594-2.34277,3.35937-3.11328,3.69531A10.79269,10.79269,0,0,1,12.25977,9.001ZM15.47168,3c-.98242,0-1.48926,1.76855-1.54395,1.96973-.167.66406-.3496,1.3291-.54589,1.98925a6.00512,6.00512,0,0,0,1.69043-.30664C16.0332,6.2334,17,5.68945,17,4.78418A1.67332,1.67332,0,0,0,15.47168,3Z"/><path d="M11.67871,9.001a10.714,10.714,0,0,1-3.52637-.52735C5.4375,7.416,5.01172,5.709,5,4.78516A3.86629,3.86629,0,0,1,6.1875,2.01172,3.4112,3.4112,0,0,1,8.5459,1.001c1.86719.05468,2.749,1.959,3.39258,3.34961l-.90625.42187.90722-.41992A25.65377,25.65377,0,0,1,12.96191,7.7666a.99915.99915,0,0,1-.93945,1.22852C11.97559,8.99707,11.85449,9.001,11.67871,9.001ZM8.46777,3a1.35794,1.35794,0,0,0-.87793.43751A1.88733,1.88733,0,0,0,7,4.75977c.01172.92871,1.0293,1.51953,1.87988,1.85156a6.82477,6.82477,0,0,0,1.8125.34765,13.97563,13.97563,0,0,0-.56738-1.7666h0l-.001-.00195C9.67578,4.22266,9.11816,3.01855,8.4873,3.001Z"/><path d="M19.5,7H4.5A2.5,2.5,0,0,0,2,9.5v11A2.5,2.5,0,0,0,4.5,23h15A2.49989,2.49989,0,0,0,22,20.5V9.5A2.49989,2.49989,0,0,0,19.5,7Zm-3.65454,8.73-.54932.54938L12.575,19.00061a.81286.81286,0,0,1-1.14966,0L8.70386,16.27936,8.15454,15.73a2.33314,2.33314,0,0,1,.35767-3.59119,2.38756,2.38756,0,0,1,2.99951.35608L12,12.98322l.48828-.48835a2.38731,2.38731,0,0,1,2.99951-.35595A2.333,2.333,0,0,1,15.84546,15.73Z"/></g></svg>
