<svg enable-background="new 0 0 32 32" viewBox="0 0 32 32" fill="currentColor" xmlns="http://www.w3.org/2000/svg"><g id="GUIDE"/><g id="Layer_2"/><g id="Layer_3"/><g id="Layer_4"/><g id="Layer_5"/><g id="Layer_6"/><g id="Layer_7"/><g id="Layer_8"/><g id="Layer_9"/><g id="Layer_10"/><g id="Layer_11"/><g id="Layer_12"/><g id="Layer_13"/><g id="Layer_14"/><g id="Layer_15"/><g id="Layer_16"/><g id="Layer_17"/><g id="Layer_18"><g><path d="m16 26.07c3.09 0 5.64-2.32 6.02-5.31-6.89 1.25-5.34-3.28-11.42-3.54-2.12 3.88.96 8.97 5.4 8.85z"/><path d="m3.07 9.93v16.07c0 2.72 2.21 4.93 4.93 4.93h16c2.72 0 4.93-2.21 4.93-4.93v-16.07zm12.93 17.14c-3.9 0-7.07-3.17-7.07-7.07s3.17-7.07 7.07-7.07 7.07 3.17 7.07 7.07-3.17 7.07-7.07 7.07z"/><path d="m24 1.07h-16c-3.74-.04-5.4 3.64-4.93 6.93 0 .51.41.93.93.93h24c1.37.04.82-2.14.93-2.93 0-2.72-2.21-4.93-4.93-4.93zm-14 4.86h-2c-1.2.01-1.2-1.87 0-1.86h2c1.2-.01 1.2 1.87 0 1.86zm5 0h-2c-1.2.02-1.2-1.87 0-1.85h2c1.2-.02 1.2 1.86 0 1.85z"/></g></g><g id="Layer_19"/><g id="Layer_20"/><g id="Layer_21"/><g id="Layer_22"/><g id="Layer_23"/><g id="Layer_24"/><g id="Layer_25"/><g id="Layer_26"/><g id="Layer_27"/><g id="Layer_28"/><g id="Layer_29"/><g id="Layer_30"/></svg>