<svg xmlns="http://www.w3.org/2000/svg" width="24" height="24" viewBox="0 0 24 24" fill="none">
  <path d="M22.23 0H1.77C0.792 0 0 0.794 0 1.771v20.459C0 23.208 0.792 24 1.77 24h20.459C23.207 24 24 23.208 24 22.229V1.771C24 0.794 23.207 0 22.23 0zM7.082 20.452H3.563V9h3.52v11.452zM5.321 7.515a2.042 2.042 0 110-4.084 2.042 2.042 0 010 4.084zm15.13 12.937h-3.521v-5.838c0-1.392-.028-3.186-1.942-3.186-1.944 0-2.241 1.515-2.241 3.083v5.941H9.226V9h3.383v1.561h.047c.471-.893 1.624-1.834 3.345-1.834 3.579 0 4.238 2.355 4.238 5.423v6.302z" fill="white"/>
</svg>
