<svg id="Capa_1" enable-background="new 0 0 512 512" fill="currentColor" height="512" viewBox="0 0 512 512" width="512" xmlns="http://www.w3.org/2000/svg"><g><circle cx="366" cy="71" r="50"/><circle cx="146" cy="71" r="50"/><circle cx="366" cy="336" r="50"/><path d="m421.256 393.768c-14.374 13.755-33.837 22.232-55.256 22.232s-40.882-8.477-55.256-22.232c-24.047 17.254-39.744 45.443-39.744 77.232v5c0 8.284 6.716 15 15 15h160c8.284 0 15-6.716 15-15v-5c0-31.789-15.697-59.978-39.744-77.232z"/><circle cx="146" cy="336" r="50"/><path d="m421.241 128.783c-14.373 13.746-33.83 22.217-55.241 22.217s-40.868-8.471-55.241-22.217c-21.493 15.421-36.327 39.562-39.233 67.217h188.948c-2.906-27.655-17.741-51.796-39.233-67.217z"/><path d="m201.241 128.783c-14.373 13.746-33.83 22.217-55.241 22.217s-40.868-8.471-55.241-22.217c-21.492 15.421-36.327 39.562-39.233 67.217h188.948c-2.906-27.655-17.741-51.796-39.233-67.217z"/><path d="m511.751 398.302-29.252-160c-1.303-7.126-7.512-12.302-14.755-12.302h-423.488c-7.244 0-13.453 5.177-14.755 12.302l-29.252 160c-1.684 9.212 5.391 17.698 14.755 17.698h18.834c8.991-18.294 22.418-34.41 39.416-46.606l.058-.041c-4.681-10.161-7.312-21.452-7.312-33.353 0-44.112 35.888-80 80-80s80 35.888 80 80c0 11.901-2.631 23.192-7.312 33.352l.058.041c15.67 11.243 28.305 25.819 37.229 42.36 9.087-16.808 21.9-31.316 37.342-42.391-4.684-10.162-7.317-21.457-7.317-33.362 0-44.112 35.888-80 80-80s80 35.888 80 80c0 11.905-2.633 23.2-7.317 33.363 16.73 11.998 30.385 28.02 39.546 46.637h18.767c9.364 0 16.439-8.486 14.755-17.698z"/><path d="m201.256 393.768c-14.374 13.755-33.837 22.232-55.256 22.232s-40.882-8.477-55.256-22.232c-24.047 17.254-39.744 45.443-39.744 77.232v5c0 8.284 6.716 15 15 15h160c8.284 0 15-6.716 15-15v-5c0-31.789-15.697-59.978-39.744-77.232z"/></g></svg>