<svg id="Layer_36" viewBox="0 0 50 50" fill="currentColor" xmlns="http://www.w3.org/2000/svg" data-name="Layer 36"><path d="m25 2.25c-12.53997803 0-22.75 10.20996094-22.75 22.75 0 12.53997803 10.21002197 22.75 22.75 22.75s22.75-10.21002197 22.75-22.75c0-12.54003906-10.21002197-22.75-22.75-22.75zm-18.25 22.75c0-10.05999756 8.19000244-18.25 18.25-18.25 4.07000732 0 7.90997314 1.32000732 11.14001465 3.82000732l-10.42999268 10.42999268h-13.95465088c-1.23779297 0-2.24462891 1.00683594-2.24462891 2.24414062v3.51171875c0 1.23730469 1.00683594 2.24414062 2.24462891 2.24414062h5.95465088l-7.14001465 7.14001465c-2.5-3.22003174-3.82000732-7.07000732-3.82000732-11.14001465zm10.29248047 2h-5.28710938c-.13476562 0-.24462891-.109375-.24462891-.24414062v-3.51171875c0-.13476562.10986328-.24414062.24462891-.24414062h5.28710938v4zm2 0v-4h13.71289062c.13476562 0 .24462891.109375.24462891.24414062v3.51171875c0 .13476562-.10986328.24414062-.24462891.24414062h-13.71289062zm5.95751953 16.25c-4.07000732 0-8.05999756-1.39001465-11.26000977-3.91003418l10.34002686-10.33996582h8.675354c1.23779297 0 2.24462891-1.00683594 2.24462891-2.24414062v-3.51171875c0-1.23730469-1.00683594-2.24414062-2.24462891-2.24414062h-.68536377l7.27001953-7.27001953c2.5199585 3.21002197 3.90997314 7.20001221 3.90997314 11.27001953 0 10.05999756-8.19000244 18.25-18.25 18.25zm14.37188721-20.89300537c-1.14337158.83752441-2.32037354 1.24188232-2.42132568 2.949646-1.39093018-1.05145264-.52313232-3.34838867.77404785-4.18048096 1.2097168-.87213135 1.72827148-1.95562744 1.44238281-3.57299805 1.95617676.74713135 1.79449463 3.72491455.20489502 4.80383301z"/></svg>