<svg height="512pt" viewBox="0 0 512 512" fill="currentColor" width="512pt" xmlns="http://www.w3.org/2000/svg"><path d="m120 105c0-8.277344-6.722656-15-15-15h-15v30h15c8.277344 0 15-6.722656 15-15zm0 0"/><path d="m135 482h-15v-45c0-8.289062-6.710938-15-15-15h-15v-182h45c41.351562 0 75-33.648438 75-75v-90c0-41.351562-33.648438-75-75-75h-90c-24.8125 0-45 20.1875-45 45v150c0 24.8125 20.1875 45 45 45h15v182h-15c-8.289062 0-15 6.710938-15 15v45h-15c-8.289062 0-15 6.710938-15 15s6.710938 15 15 15h120c8.289062 0 15-6.710938 15-15s-6.710938-15-15-15zm-75-407c0-8.289062 6.710938-15 15-15h30c24.8125 0 45 20.1875 45 45s-20.1875 45-45 45h-15v15c0 8.289062-6.710938 15-15 15s-15-6.710938-15-15zm0 0"/><path d="m186.191406 302h64.597656l25.605469-25.605469c5.859375-5.859375 15.351563-5.859375 21.210938 0s5.859375 15.351563 0 21.210938l-4.394531 4.394531h77.578124l25.605469-25.605469c5.859375-5.859375 15.351563-5.859375 21.210938 0s5.859375 15.351563 0 21.210938l-4.394531 4.394531h64.597656l-19.742188-59.238281c-6.125-18.371094-23.316406-30.761719-42.679687-30.761719h-166.773438c-19.363281 0-36.554687 12.390625-42.675781 30.761719zm0 0"/><path d="m482 332h-300c-16.570312 0-30 13.429688-30 30v75c0 8.285156 6.714844 15 15 15h330c8.285156 0 15-6.714844 15-15v-75c0-16.570312-13.429688-30-30-30zm-225 75h-30c-8.289062 0-15-6.710938-15-15s6.710938-15 15-15h30c8.289062 0 15 6.710938 15 15s-6.710938 15-15 15zm180 0h-30c-8.289062 0-15-6.710938-15-15s6.710938-15 15-15h30c8.289062 0 15 6.710938 15 15s-6.710938 15-15 15zm0 0"/><path d="m227 512c19.53125 0 36.023438-12.578125 42.238281-30h-84.476562c6.214843 17.421875 22.707031 30 42.238281 30zm0 0"/><path d="m437 512c19.53125 0 36.023438-12.578125 42.238281-30h-84.476562c6.214843 17.421875 22.707031 30 42.238281 30zm0 0"/></svg>