<svg id="Capa_1" enable-background="new 0 0 512 512" fill="currentColor" height="512" viewBox="0 0 512 512" width="512" xmlns="http://www.w3.org/2000/svg"><g><g><path d="m510.361 484.122c-10.951-25.554-36.077-42.122-63.879-42.122h-26.472v15c0 20.962-7.643 40.163-20.269 55h92.237c14.359 0 24.039-14.681 18.383-27.878z"/></g><path d="m362.03 295.43c-18.815-27.964-45.392-49.221-76.776-61.426-40.68-15.82-70.481-49.775-81.238-91.125-8.085 4.788-17.491 7.445-27.486 7.445-1.742 0-3.516-.083-5.271-.248-25.052-2.362-44.489-20.648-48.373-45.502l-3.555-22.748c-1.279-8.185 4.319-15.857 12.504-17.136 8.179-1.279 15.856 4.319 17.136 12.504l3.555 22.748c1.757 11.243 10.212 19.198 21.541 20.266.821.077 1.652.116 2.463.116 10.346 0 18.961-6.13 22.485-15.998l11.01-30.827c.012-.034.029-.065.041-.099 5.963-16.796 3.4-35.51-6.869-50.082-10.289-14.601-27.095-23.318-44.957-23.318h-45.545c-15.463 0-30.296 6.562-40.697 18.003l-33.634 36.997h-23.105c-2.26 0-4.52.419-6.565 1.38-5.457 2.565-8.694 7.926-8.694 13.62v45c0 19.253 15.728 34.954 35.06 35 12.949.031 23.624 9.977 24.827 22.619l-3.608 9.754c-16.737 45.238-11.568 96.098 13.721 137.006v135.191c-16.569 0-30 13.431-30 30v12.43c0 8.284 6.716 15 15 15h74.99v-222c0-8.284 6.716-15 15-15s15 6.716 15 15v222h20.01v-30c0-24.813 20.187-45 45-45h16.507c6.969-34.191 37.274-60 73.493-60 8.284 0 15 6.716 15 15s-6.716 15-15 15c-24.813 0-45 20.187-45 45 0 8.284-6.716 15-15 15h-30c-8.271 0-15 6.729-15 15v30h125c30.376 0 55-24.624 55-55v-68.389c0-33.128-9.476-65.694-27.97-93.181z"/></g></svg>