<svg height="512" viewBox="0 0 48 48" fill="currentColor" width="512" xmlns="http://www.w3.org/2000/svg"><g id="Accommodation,-honeymoon,-hotel,-room,-service-icon" fill-rule="evenodd"><path id="Shape" d="m24 5c4.8818027 0 9 3.93810839 9 9v24c0 2.6887547-2.2164127 5-5 5h-8c-2.6887547 0-5-2.2215835-5-5v-12c0-2.6887547 2.1525432-5 5-5h4c3.8659932 0 7-3.1340068 7-7s-3.1340068-7-7-7c-3.7854517 0-7 3.0600802-7 7h-2c0-4.97056275 4.0294373-9 9-9zm-2.3085567 25.7224307c-.4645272.4446021-.4575798 1.0768196.0182859 1.5730947 1.1418206 1.1503372 1.9730267 1.7044746 2.2902708 1.7044746s1.1484502-.5541374 2.2783536-1.6922618c.4877829-.5084879.4947303-1.1407054.0302031-1.5853075-.493152-.471999-1.0540502-.5304225-1.6171134 0l-.6914433.6617851-.6914433-.6617851c-.5283771-.5057133-1.0887363-.5057133-1.6171134 0z" fill-rule="nonzero"/></g></svg>