<svg height="512" viewBox="0 0 96 96" width="512" fill="currentColor" xmlns="http://www.w3.org/2000/svg"><path d="m78 60h-9.3a11.1975 11.1975 0 0 1 3.3 8 8.01 8.01 0 0 1 -8 8h-18a2 2 0 0 1 0-4h18a4.0027 4.0027 0 0 0 4-4c0-5.16-4.2617-8-12-8h-22a10.0093 10.0093 0 0 0 -10 10v8a10.0093 10.0093 0 0 0 10 10h44a10.0093 10.0093 0 0 0 10-10v-8a10.0093 10.0093 0 0 0 -10-10z"/><path d="m20 70a14.017 14.017 0 0 1 14-14h6v-22a1.9988 1.9988 0 0 0 -2-2h-12v-4.2842a7.9941 7.9941 0 0 0 6-7.7158c0-3.5781-4.1836-12-8-12s-8 8.4219-8 12a7.9941 7.9941 0 0 0 6 7.7158v4.2842h-12a1.9988 1.9988 0 0 0 -2 2v52a1.9988 1.9988 0 0 0 2 2h14.2332a13.9421 13.9421 0 0 1 -4.2332-10z"/><path d="m58 51.9883h4a2 2 0 0 0 2-2 10 10 0 0 0 -10-10h-4a2 2 0 0 0 -2 2 10 10 0 0 0 10 10z"/><path d="m66 42.8923a14.1071 14.1071 0 0 1 7.5278-6.13 13.839 13.839 0 0 0 -3.2856-5.36l-2.8281-2.8281a2.0587 2.0587 0 0 0 -2.8282 0l-2.8259 2.8281a13.8394 13.8394 0 0 0 -3.2869 5.3606 14.1066 14.1066 0 0 1 7.5269 6.1294z"/><path d="m68 49.9883a2 2 0 0 0 2 2h4a10 10 0 0 0 10-10 2 2 0 0 0 -2-2h-4a10 10 0 0 0 -10 10z"/></svg>